<svg width="1200" height="630" viewBox="0 0 1200 630" fill="none" xmlns="http://www.w3.org/2000/svg">
<rect width="1200" height="630" fill="white"/>
<path d="M268.97 322.159C254.017 322.159 242.136 328.367 233.737 340.569C228.001 329.009 216.53 321.945 204.034 322.159C192.153 321.73 180.886 327.082 173.307 336.716V334.575C173.307 328.367 168.391 323.229 162.45 323.229C156.51 323.229 151.798 328.367 151.798 334.575V420.849C152.003 427.057 157.124 431.981 163.065 431.553C168.596 431.339 173.102 426.629 173.307 420.849V361.121C178.223 352.772 185.598 343.352 198.913 343.352C211.613 343.352 216.53 349.775 216.53 366.473V420.849C216.735 427.057 221.856 431.981 227.796 431.553C233.327 431.339 237.834 426.629 238.039 420.849V361.121C242.955 352.772 250.329 343.352 263.644 343.352C276.345 343.352 281.261 349.775 281.261 366.473V420.849C281.466 427.057 286.587 431.981 292.528 431.553C298.059 431.339 302.565 426.629 302.77 420.849V362.834C303.18 343.138 292.528 322.159 268.97 322.159Z" fill="#111111"/>
<path d="M372.21 322.157C360.534 322.157 348.858 324.726 338.206 329.65C334.314 331.149 331.855 335.002 331.855 339.284C331.855 344.636 335.747 348.917 340.869 349.131H341.073C342.098 349.131 343.122 348.917 344.146 348.703C352.135 345.706 360.534 343.993 369.137 343.993C385.73 343.993 392.695 350.416 392.899 366.257H371.595C342.712 366.043 325.3 378.888 325.3 400.724C325.3 421.918 342.098 433.05 358.69 433.05C371.186 433.478 383.272 428.983 392.899 420.634V420.848C393.104 427.056 398.225 431.98 404.166 431.552C409.697 431.338 414.203 426.628 414.408 420.848V363.903C414.408 343.137 401.298 322.157 372.21 322.157ZM365.245 412.713C353.159 412.713 346.809 408.003 346.809 398.798C346.809 395.372 346.809 385.096 373.849 385.096H392.899V399.012C387.164 405.434 376.717 412.713 365.245 412.713Z" fill="#111111"/>
<path d="M455.585 281.912H456.814C463.369 281.912 468.695 287.478 468.695 294.329V295.185C468.695 302.036 463.369 307.602 456.814 307.602H455.585C449.03 307.602 443.704 302.036 443.704 295.185V294.329C443.704 287.478 449.03 281.912 455.585 281.912Z" fill="#111111"/>
<path d="M455.996 323.013C450.056 323.013 445.344 327.936 445.344 334.145V334.359V420.633C445.549 426.841 450.67 431.765 456.611 431.337C462.142 431.123 466.648 426.413 466.853 420.633V334.359C466.853 328.15 462.142 323.013 455.996 323.013Z" fill="#111111"/>
<path d="M510.69 278.699C504.749 278.699 500.038 283.623 500.038 289.832V290.046V420.634C500.242 426.842 505.364 431.766 511.304 431.338C516.835 431.124 521.342 426.414 521.546 420.634V290.046C521.546 283.837 516.835 278.699 510.894 278.699C510.69 278.699 510.69 278.699 510.69 278.699Z" fill="#111111"/>
<path d="M596.11 322.157C580.746 322.157 568.046 328.151 559.442 339.498C552.068 349.345 547.971 362.832 547.971 377.604C547.971 412.285 567.431 433.05 599.797 433.05C617.619 433.05 626.427 428.769 634.621 423.845C638.103 422.132 640.356 418.493 640.766 414.425C640.766 408.859 636.464 404.364 631.343 404.364H631.138C629.704 404.364 628.066 404.578 626.837 405.434C619.052 409.716 610.449 411.642 601.845 411.428C583.819 411.428 573.167 402.651 570.504 385.953H633.187C638.923 386.167 643.839 381.457 644.044 375.463C644.044 375.249 644.044 375.035 644.044 374.607C644.044 338.641 619.257 322.157 596.11 322.157ZM596.11 341.852C605.123 341.852 620.282 347.204 622.33 366.9H569.889C571.938 349.559 584.229 341.852 596.11 341.852Z" fill="#111111"/>
<path d="M718.811 322.159H717.787C707.545 322.159 698.122 327.297 689.518 337.145V334.576C689.518 328.368 684.602 323.23 678.662 323.23C672.721 323.23 667.805 328.368 668.01 334.576V420.85C668.214 427.058 673.336 431.982 679.276 431.554C684.807 431.34 689.314 426.63 689.518 420.85V360.265C696.483 349.776 706.316 343.995 717.377 343.995H718.402C724.137 344.424 728.849 339.928 729.259 333.934C729.259 333.72 729.259 333.506 729.259 333.292C729.463 327.297 724.752 322.159 719.016 321.945C719.016 322.159 718.811 322.159 718.811 322.159Z" fill="#111111"/>
<path d="M1017.07 196.922H799.111C782.109 196.922 768.384 211.265 768.384 229.034V433.051L810.787 389.165H1017.27C1034.27 389.165 1048 374.822 1048 357.053V229.034C1047.79 211.265 1034.07 196.922 1017.07 196.922ZM833.73 340.783C833.73 345.493 830.043 349.346 825.536 349.346C821.03 349.346 817.343 345.493 817.343 340.783V249.799C817.343 245.09 821.03 241.236 825.536 241.236C830.043 241.236 833.73 245.09 833.73 249.799V340.783ZM871.832 340.783C871.832 345.493 868.144 349.346 863.638 349.346C859.131 349.346 855.444 345.493 855.444 340.783V280.627C855.444 275.917 859.131 272.064 863.638 272.064C868.144 272.064 871.832 275.917 871.832 280.627V340.783ZM872.856 253.225C872.856 258.363 868.964 262.43 864.047 262.43H863.228C858.312 262.43 854.42 258.363 854.42 253.225V252.582C854.42 247.445 858.312 243.377 863.228 243.377H864.047C868.964 243.377 872.856 247.445 872.856 252.582V253.225ZM930.622 347.205C926.935 349.132 922.838 349.988 918.537 349.988C904.402 349.988 896.823 342.924 896.823 329.437V288.12H889.448C886.99 288.12 884.942 286.193 884.942 283.624V283.41C884.942 281.911 885.761 280.413 886.99 279.342L905.222 260.717C906.246 259.647 907.475 259.005 908.909 258.791C911.367 258.791 913.62 260.932 913.62 263.5C913.62 263.5 913.62 263.5 913.62 263.715V272.706H926.73C930.827 272.706 934.105 276.131 934.105 280.413C934.105 284.694 930.827 288.12 926.73 288.12H913.62V328.366C913.62 334.147 916.488 334.575 920.38 334.575C922.019 334.575 923.658 334.361 925.092 333.932C926.116 333.504 927.345 333.504 928.369 333.29C932.056 333.29 935.129 336.501 935.334 340.569C934.924 343.352 933.081 346.135 930.622 347.205ZM980.81 333.932C986.75 334.147 992.691 332.648 998.017 329.865C999.041 329.223 1000.27 329.009 1001.29 329.009C1005.39 329.009 1008.67 332.22 1008.67 336.501C1008.67 336.501 1008.67 336.501 1008.67 336.716C1008.46 339.713 1006.83 342.496 1004.16 343.78C998.427 347.205 992.281 350.202 979.581 350.202C956.638 350.202 942.708 335.431 942.708 310.812C942.708 281.911 961.145 271.421 976.713 271.421C1000.07 271.421 1010.72 290.903 1010.72 308.885C1010.92 313.381 1007.44 317.234 1003.14 317.448C1002.93 317.448 1002.73 317.448 1002.52 317.448H959.506C961.759 328.152 969.134 333.932 980.81 333.932Z" fill="#09C269"/>
<path d="M977.125 286.62C968.112 286.406 960.533 293.471 959.713 302.89H994.742C993.718 293.471 986.138 286.406 977.125 286.62Z" fill="#09C269"/>
</svg>
